# xmcd
#
# Track frame offsets:
#	187
#	13912
#	27612
#	41787
#	54662
#	67337
#	78850
#	89787
#	103237
#	114537
#	127087
#	138937
#	151200
#	165637
#	176600
#	188925
#	202287
#	213487
#	226500
#	237762
#	251662
#	264712
#
# Disc length: 3706 seconds
#
# Revision: 1
# Processed by: cddbd v1.5.1PL0 Copyright (c) Steve Scherf et al.
# Submitted via: CDex 1.50Beta5
#
DISCID=4c0e7816
DTITLE=ハンク・ウィリアムス - ハンク・ウィリアムス大全集 Disc 3
DYEAR=1989
DGENRE=Folk
TTITLE0=多過ぎるパーティーと多過ぎる友達
TTITLE1=夕日のかなた
TTITLE2=葬儀
TTITLE3=すべてOK
TTITLE4=ぼくらの愛はいつまでも
TTITLE5=俺はひとりだ
TTITLE6=モーニング・ザ・ブルース
TTITLE7=主よお導きを
TTITLE8=ノー・ノー・ジョー
TTITLE9=コールド・コールド・ハート
TTITLE10=いとしのジョン
TTITLE11=みんなが何かを待っている
TTITLE12=傷心の人々
TTITLE13=どうにも出来ない
TTITLE14=月に吠える
TTITLE15=ヘイ・グッド・ルッキン
TTITLE16=マイ・ハード・ウッド・ノウ
TTITLE17=青白き馬とその騎士
TTITLE18=天国の家
TTITLE19=さすらう男
TTITLE20=人生の絵
TTITLE21=いつか歩いた道
EXTD=
EXTT0=
EXTT1=
EXTT2=
EXTT3=
EXTT4=
EXTT5=
EXTT6=
EXTT7=
EXTT8=
EXTT9=
EXTT10=
EXTT11=
EXTT12=
EXTT13=
EXTT14=
EXTT15=
EXTT16=
EXTT17=
EXTT18=
EXTT19=
EXTT20=
EXTT21=
PLAYORDER=
